<svg xmlns="http://www.w3.org/2000/svg" width="72" height="53"><path fill="#87949e" d="M71.727 20.969l-8.47-19.08A3.178 3.178 0 0060.353 0a3.18 3.18 0 00-3.098 2.473L48.888 39.33 37.88 12.57a3.174 3.174 0 10-5.859-.04L22.015 35.903 16.61 25.08a3.177 3.177 0 00-5.284-.615L.737 37.184a3.179 3.179 0 002.44 5.216c.98 0 1.859-.446 2.44-1.145l7.478-8.984 6.297 12.609a3.176 3.176 0 005.764-.17l9.726-22.72 11.945 29.038a3.178 3.178 0 006.036-.501l8.47-37.31 4.587 10.332a3.178 3.178 0 002.904 1.89 3.18 3.18 0 002.903-4.47z"/></svg>